<svg width="402" height="111" viewBox="0 0 402 111" fill="none" xmlns="http://www.w3.org/2000/svg">
<g clip-path="url(#clip0_4455_5529)">
<path d="M74.2663 83.6675C70.3512 70.9518 65.8244 68.5575 60.3417 66.3858C73.2799 62.7944 83.4041 53.3632 83.4041 36.2196C83.4118 6.45242 60.4947 0.789062 48.9405 0.789062C31.7069 0.789062 0.445312 1.00152 0.445312 1.00152C0.445312 1.00152 0.445312 19.3304 0.445312 25.6219C0.445312 44.776 0.445312 44.776 0.445312 110.564H27.8204C25.8399 107.917 24.6241 102.821 24.4788 92.0858C24.4177 87.2052 24.4788 70.476 24.4788 70.476C31.9879 70.476 41.5156 70.3609 46.616 76.761C51.1428 82.4397 55.0426 93.375 60.357 110.787H90.3244C83.4041 105.921 79.0379 99.1611 74.2663 83.6675ZM40.7051 52.6111C33.2037 52.6111 24.4635 52.6111 24.4635 52.6111C24.4635 52.6111 24.4788 25.9289 24.4788 20.5801C24.4788 20.5801 34.8554 20.5801 40.7051 20.5801C51.2346 20.5801 60.3035 23.7572 60.3035 35.4599C60.2959 47.1626 53.2533 52.6111 40.7051 52.6111Z" fill="white"/>
<path d="M401.552 69.3763C401.451 54.9953 395.099 40.6369 382.896 33.6796C366.465 24.3229 341.004 26.1206 328.147 41.3214C312.664 59.6285 316.533 93.3998 337.615 105.193C353.982 114.347 379.156 112.579 391.99 97.5742C398.487 90.0001 401.624 79.6882 401.552 69.3763ZM360.133 91.8127C355.382 91.7601 350.572 89.451 347.356 84.893C344.514 80.8615 343.107 75.3258 343.1 69.3763C343.107 63.4193 344.507 57.8836 347.356 53.8596C350.572 49.3016 355.382 47 360.133 46.9399C364.885 46.9925 369.688 49.3016 372.911 53.8596C375.753 57.8911 377.16 63.4269 377.167 69.3763C377.16 75.3333 375.76 80.8691 372.911 84.893C369.695 89.451 364.885 91.7601 360.133 91.8127Z" fill="white"/>
<path d="M287.249 90.9252C278.621 90.9252 266.01 84.8696 266.01 69.3682C266.01 53.8669 278.621 47.8112 287.249 47.8112C294.045 47.8112 301.83 49.9617 307.232 53.6055C307.232 53.6055 309.396 46.6389 314.645 37.813C306.486 31.257 293.472 27.9492 283.113 27.9492C264.397 27.9492 241.312 38.9853 241.312 69.3682C241.312 99.7512 264.397 110.787 283.113 110.787C293.472 110.787 306.486 107.479 314.645 100.923C309.396 92.0976 307.232 85.1309 307.232 85.1309C301.83 88.7748 294.045 90.9252 287.249 90.9252Z" fill="white"/>
<path d="M199.491 91.324C217.456 82.4031 233.178 73.2748 234.082 56.388C234.598 46.8303 230.838 38.509 224.214 33.8006C210.937 24.3614 189.824 26.8415 177.414 37.6577C164.922 48.5479 162.163 62.6808 164.331 78.0796C164.667 80.4486 165.946 83.8912 166.611 86.0751C158.455 89.3326 146.964 92.4271 137.111 93.0638C131.489 93.4266 125.919 92.5826 121.045 90.9243C121.045 90.9243 136.714 84.7573 146.463 76.4583C160.757 64.2947 158.559 41.9738 147.054 33.8006C133.776 24.3614 112.664 26.8415 100.254 37.6577C87.7617 48.5479 85.0032 62.6808 87.1712 78.0796C88.8683 90.1543 94.7518 100 105.936 105.434C114.167 109.432 122.076 110.765 134.27 110.765C152.885 110.765 168.929 103.48 176.203 100.963C178.236 102.666 189.286 110.787 205.763 110.787C216.207 110.787 230.008 109.44 241.312 102.251C238 97.3133 235.495 91.8941 234.097 86.3787C226.92 90.4282 213.082 95.3588 199.491 91.324ZM114.944 52.5975C118.637 47.43 126.532 43.4322 132.513 47.3856C138.763 51.524 136.004 58.3646 132.633 62.2292C126.569 69.1512 118.862 72.4235 110.743 75.6513C110.249 71.6165 109.801 59.8009 114.944 52.5975ZM192.112 52.5975C195.805 47.43 203.7 43.4322 209.681 47.3856C215.931 51.524 213.635 59.7861 210.256 63.6432C204.193 70.5652 196.657 73.9263 188.538 77.1542C186.669 70.4616 186.961 59.8009 192.112 52.5975Z" fill="white"/>
</g>
<defs>
<clipPath id="clip0_4455_5529">
<rect width="402" height="111" fill="white"/>
</clipPath>
</defs>
</svg>
